<?xml version="1.0" encoding="utf-8"?>
<svg viewBox="543.979 372.931 472.043 108.549" xmlns="http://www.w3.org/2000/svg" xmlns:bx="https://boxy-svg.com">
  <defs>
    <filter id="inner-shadow-filter-0" x="-500%" y="-500%" width="1000%" height="1000%" bx:preset="inner-shadow 1 0 0 10 0.5 rgba(0,0,0,0.7)">
      <feOffset dx="0" dy="0"/>
      <feGaussianBlur stdDeviation="10"/>
      <feComposite operator="out" in="SourceGraphic"/>
      <feComponentTransfer result="choke">
        <feFuncA type="linear" slope="1"/>
      </feComponentTransfer>
      <feFlood flood-color="rgba(0,0,0,0.7)" result="color"/>
      <feComposite operator="in" in="color" in2="choke" result="shadow"/>
      <feComposite operator="over" in="shadow" in2="SourceGraphic"/>
    </filter>
    <filter id="inner-shadow-filter-1" x="-500%" y="-500%" width="1000%" height="1000%" bx:preset="inner-shadow 1 0 0 10 0.5 rgba(0,0,0,0.7)">
      <feOffset dx="0" dy="0"/>
      <feGaussianBlur stdDeviation="10"/>
      <feComposite operator="out" in="SourceGraphic"/>
      <feComponentTransfer result="choke">
        <feFuncA type="linear" slope="1"/>
      </feComponentTransfer>
      <feFlood flood-color="rgba(0,0,0,0.7)" result="color"/>
      <feComposite operator="in" in="color" in2="choke" result="shadow"/>
      <feComposite operator="over" in="shadow" in2="SourceGraphic"/>
    </filter>
    <style>.aIptOCySncolors-0avscJij0- {fill:#7A63FF;fill-opacity:1;}.aIptOCySncolors-1avscJij0- {fill:#74E0EF;fill-opacity:1;}.aIptOCySncolors-2avscJij0- {fill:white;fill-opacity:1;}.aIptOCySncolors-3avscJij0- {fill:#969696;fill-opacity:1;}.aIptOCySncolors-4avscJij0- {fill:#C1F7FF;fill-opacity:1;}.aIptOCySncolors-5avscJij0- {fill:#EF75FD;fill-opacity:1;}.aIptOCySncolors-6avscJij0- {fill:#555555;fill-opacity:1;}.aIptOCySncolors-7avscJij0- {fill:#B4B4B4;fill-opacity:1;}</style>
  </defs>
  <g opacity="1" transform="matrix(1.378415, 0, 0, 1.234967, -244.627655, -103.293594)" style="filter: url(#inner-shadow-filter-0);">
    <svg width="89.7998" height="85.5294" x="575" y="386.7353" version="1.1" preserveAspectRatio="none" viewBox="5.345006465911865 7.470000267028809 89.30799865722656 85.06099700927734">
      <g transform="matrix(1 0 0 1 0 0)" class="aIptOCySncolors-0avscJij0-" style="filter: url(#inner-shadow-filter-1);">
        <polygon points="81.266,44.171 78.943,33.835 73.93,26.008 66.109,19.904 71.602,27.411 75.621,34.441 77.777,44.118 77.172,53.739 73.551,62.142 68.116,69.511 62.075,75.83 69.977,71.066 76.535,63.91 80.523,54.769 " style="paint-order: fill; fill: rgb(205, 17, 59);"/>
        <polygon points="88.123,25.541 83.181,16.5 77.033,12.205 81.791,17.821 86.076,26.185 87.506,36.987 87.06,48.338 83.734,57.607 77.572,69.247 85.198,59.268 89.329,48.857 89.777,36.93 " style="paint-order: fill; fill: rgb(205, 17, 59);"/>
        <polygon points="80.307,27.759 83.026,36.068 84.399,46.589 84.723,35.802 82.102,26.492 74.278,16.836 66.424,10.459 56.291,7.47 47.46,7.487 55.691,9.159 65.42,12.679 72.907,18.684 " style="paint-order: fill; fill: rgb(205, 17, 59);"/>
        <path d="M92.225,30.156l0.309,7.482l-0.699,11.984l-3.306,9.951l-3.806,6.337l-5.275,5.717l-5.515,5.319l2.786-6.291l-10.721,6.464 l-6.618,0.383L62.438,70l-8.413,2.172l3.959-4.86l4.596-9.694l-6.39,1.793l4.322-7.435l2.3-9.143l-5.326,2.24l0.677-4.476 l-0.964-4.641l1.522,0.402l3.13,2.802l-2.242-5.53l-3.512-4.222l-5.044-4.296l-5.156-3.026l-4.744-1.733l-3.824-0.587l4.643-3.33 l4.327-6.644l-5.911,4.48l-4.465,2.121l0.595-2.312l0.096-3.335l-3.688,6.19l-4.599,2.473l-3.857,3.765l-7.346,2.208l-2.208,3.477 l-2.681,1.186l-2.578,0.262l-4.312,2.25l1.181,3.616l3.135,3.231l0.76-4.134l1.298,0.463l0.63-1.565l3.737-1.633l3.573,0.825 l-5.696,3.551l-1.747,2.151l6.622-3.04l-2.406,5.316l-3.688-0.696l0.648,2.547l1.323,1.477l2.967,1.531l2.428-4.15l3.661-3.306 l4.454-1.036l5.082,0.41l3.105,1.107l4.422-1.527l2.354-1.289l-1.771,1.78l-2.619,2.034l-2.276,1.031l0.371,3.328l-1.011,3.465 l6.373-0.349l-3.134,1.375l-3.448,0.842l-2.119,5.262l2.767,0.795l4.497,0.733l-4.852,0.701l-3.322-0.351l-3.559,3.741l3.76,1.875 l4.185,1.212l-4.537,0.215l-5.888-1.522l-6.748,4.272l-1.719,8.294l2.839-2.553l2.432,6.996l5.415,6.84l6.874,4.259l0.133-3.323 l5.598,2.715l7.745,1.915l10.827,0.543l-4.45-3.633l10.782-2.027l8.855-4.315l7.58-7.116l4.941-7.23l3.655-7.116l2.877-10.816 l0.411-12.637l0.001-0.02L92.225,30.156z M20.987,28.78l-2.096,0.893l0.959-2.383l4.64-1.22L20.987,28.78z M37.72,26.297 l-5.159,0.23l1.755-2.659l4.437,0.186l5,1.408l5.743,2.729l6,5.575l-6.506-4.205l-5.748-2.329L37.72,26.297z" style="paint-order: fill; fill: rgb(205, 17, 59);"/>
      </g>
    </svg>
  </g>
  <path d="M 754.713 390.119 C 754.8 391.492 754.92 392.646 755.073 393.579 C 755.233 394.512 755.426 395.402 755.653 396.249 C 755.886 397.096 756.16 397.999 756.473 398.959 C 756.786 399.919 757.146 401.116 757.553 402.549 C 757.266 403.122 757.013 403.846 756.793 404.719 C 756.58 405.592 756.393 406.502 756.233 407.449 C 756.08 408.396 755.966 409.326 755.893 410.239 C 755.82 411.159 755.783 411.962 755.783 412.649 C 755.783 413.196 755.806 413.726 755.853 414.239 C 755.893 414.759 755.986 415.249 756.133 415.709 C 754.466 416.022 753.016 416.729 751.783 417.829 C 750.556 418.936 749.34 420.262 748.133 421.809 C 745.813 420.809 743.126 420.099 740.073 419.679 C 737.02 419.266 733.756 419.059 730.283 419.059 C 730.603 418.886 731.006 418.562 731.493 418.089 C 731.98 417.616 732.453 417.072 732.913 416.459 C 733.373 415.839 733.766 415.192 734.093 414.519 C 734.42 413.846 734.583 413.222 734.583 412.649 C 734.583 412.076 734.576 411.432 734.563 410.719 C 734.55 409.999 734.493 409.266 734.393 408.519 C 734.293 407.779 734.136 407.056 733.923 406.349 C 733.71 405.649 733.416 405.042 733.043 404.529 C 733.356 404.182 733.613 403.659 733.813 402.959 C 734.013 402.252 734.163 401.476 734.263 400.629 C 734.363 399.789 734.43 398.916 734.463 398.009 C 734.49 397.109 734.503 396.286 734.503 395.539 C 734.503 394.619 734.43 393.829 734.283 393.169 C 734.143 392.509 733.893 391.902 733.533 391.349 C 733.173 390.789 732.686 390.236 732.073 389.689 C 731.453 389.142 730.673 388.512 729.733 387.799 C 731.766 387.799 733.593 387.792 735.213 387.779 C 736.833 387.766 738.33 387.736 739.703 387.689 C 741.083 387.649 742.373 387.579 743.573 387.479 C 744.78 387.379 745.983 387.226 747.183 387.019 C 748.076 387.566 749.21 388.126 750.583 388.699 C 751.956 389.272 753.333 389.746 754.713 390.119 Z M 749.893 413.299 C 749.893 412.666 749.936 411.826 750.023 410.779 C 750.11 409.732 750.233 408.672 750.393 407.599 C 750.546 406.526 750.733 405.516 750.953 404.569 C 751.166 403.622 751.403 402.919 751.663 402.459 C 751.456 401.886 751.226 401.162 750.973 400.289 C 750.713 399.416 750.453 398.499 750.193 397.539 C 749.94 396.579 749.713 395.619 749.513 394.659 C 749.306 393.699 749.163 392.846 749.083 392.099 C 748.623 392.099 748.04 392.119 747.333 392.159 C 746.633 392.206 745.873 392.279 745.053 392.379 C 744.24 392.479 743.423 392.609 742.603 392.769 C 741.79 392.922 741.04 393.116 740.353 393.349 C 740.293 394.636 740.25 396.119 740.223 397.799 C 740.19 399.472 740.173 401.256 740.173 403.149 C 740.173 404.982 740.21 406.909 740.283 408.929 C 740.356 410.949 740.48 413.036 740.653 415.189 C 740.94 415.276 741.32 415.376 741.793 415.489 C 742.266 415.602 742.76 415.716 743.273 415.829 C 743.786 415.949 744.296 416.059 744.803 416.159 C 745.303 416.259 745.74 416.336 746.113 416.389 C 746.513 415.736 747.056 415.136 747.743 414.589 C 748.43 414.042 749.146 413.612 749.893 413.299 ZM 787.042 417.809 C 785.836 418.669 784.896 419.709 784.222 420.929 C 783.549 422.149 783.012 423.359 782.612 424.559 C 782.472 423.986 782.266 423.372 781.992 422.719 C 781.719 422.059 781.382 421.419 780.982 420.799 C 780.576 420.186 780.109 419.612 779.582 419.079 C 779.049 418.552 778.469 418.129 777.842 417.809 C 778.096 417.556 778.289 417.219 778.422 416.799 C 778.549 416.386 778.649 415.799 778.722 415.039 C 778.796 414.279 778.846 413.312 778.872 412.139 C 778.899 410.959 778.942 409.482 779.002 407.709 C 778.889 407.649 778.509 407.376 777.862 406.889 C 777.216 406.402 776.519 405.859 775.772 405.259 C 774.772 405.859 773.792 406.446 772.832 407.019 C 771.872 407.592 770.989 408.122 770.182 408.609 C 770.302 410.762 770.469 412.792 770.682 414.699 C 770.896 416.599 771.189 418.339 771.562 419.919 C 770.816 419.546 770.149 419.289 769.562 419.149 C 768.976 419.002 768.409 418.929 767.862 418.929 C 767.376 418.929 766.896 418.972 766.422 419.059 C 765.949 419.146 765.462 419.239 764.962 419.339 C 764.462 419.439 763.939 419.532 763.392 419.619 C 762.846 419.706 762.242 419.749 761.582 419.749 C 761.442 419.749 761.286 419.749 761.112 419.749 C 760.939 419.749 760.782 419.736 760.642 419.709 C 761.242 419.336 761.799 418.839 762.312 418.219 C 762.832 417.606 763.279 416.926 763.652 416.179 C 764.026 415.432 764.319 414.642 764.532 413.809 C 764.746 412.982 764.852 412.166 764.852 411.359 C 764.852 409.899 764.682 408.472 764.342 407.079 C 763.996 405.692 763.449 404.539 762.702 403.619 C 763.509 402.132 764.056 400.722 764.342 399.389 C 764.629 398.056 764.772 396.729 764.772 395.409 C 764.772 394.636 764.729 393.789 764.642 392.869 C 763.436 392.696 762.509 392.246 761.862 391.519 C 761.222 390.786 760.902 389.646 760.902 388.099 C 762.102 388.359 763.089 388.539 763.862 388.639 C 764.636 388.739 765.426 388.789 766.232 388.789 C 766.692 388.789 767.192 388.766 767.732 388.719 C 768.279 388.679 768.859 388.572 769.472 388.399 C 770.092 388.226 770.759 387.962 771.472 387.609 C 772.192 387.249 772.952 386.752 773.752 386.119 C 774.072 386.379 774.702 386.709 775.642 387.109 C 776.589 387.509 777.696 387.896 778.962 388.269 C 780.222 388.642 781.562 388.959 782.982 389.219 C 784.396 389.472 785.736 389.599 787.002 389.599 C 787.402 389.599 787.789 389.586 788.162 389.559 C 788.536 389.532 788.922 389.489 789.322 389.429 C 789.009 390.089 788.392 390.772 787.472 391.479 C 786.552 392.179 785.536 392.742 784.422 393.169 C 784.336 393.576 784.292 394.006 784.292 394.459 C 784.292 394.919 784.312 395.409 784.352 395.929 C 784.399 396.442 784.456 396.956 784.522 397.469 C 784.596 397.989 784.689 398.479 784.802 398.939 C 784.922 399.392 785.052 399.779 785.192 400.099 C 784.906 400.186 784.412 400.406 783.712 400.759 C 783.006 401.119 782.166 401.586 781.192 402.159 C 781.852 402.759 782.569 403.389 783.342 404.049 C 784.116 404.709 784.906 405.282 785.712 405.769 C 785.566 406.089 785.456 406.636 785.382 407.409 C 785.316 408.182 785.282 409.069 785.282 410.069 C 785.282 410.816 785.309 411.569 785.362 412.329 C 785.422 413.089 785.522 413.819 785.662 414.519 C 785.809 415.226 785.989 415.866 786.202 416.439 C 786.416 417.012 786.696 417.469 787.042 417.809 Z M 778.482 398.159 L 778.272 392.869 C 776.726 392.642 775.292 392.442 773.972 392.269 C 772.652 392.096 771.346 391.852 770.052 391.539 C 769.999 392.252 769.972 393.026 769.972 393.859 C 769.972 394.692 769.972 395.539 769.972 396.399 L 769.972 399.749 L 769.972 403.149 C 770.886 402.602 771.832 402.049 772.812 401.489 C 773.786 400.936 774.686 400.422 775.512 399.949 C 776.346 399.476 777.036 399.072 777.582 398.739 C 778.129 398.412 778.429 398.219 778.482 398.159 ZM 824.659 421.769 L 824.619 421.899 C 822.985 421.326 821.372 420.702 819.779 420.029 C 818.192 419.356 816.622 418.559 815.069 417.639 C 814.695 418.012 814.365 418.329 814.079 418.589 C 813.792 418.842 813.492 419.062 813.179 419.249 C 812.865 419.436 812.529 419.596 812.169 419.729 C 811.809 419.856 811.385 419.976 810.899 420.089 C 811.185 419.749 811.385 419.332 811.499 418.839 C 811.619 418.352 811.679 417.852 811.679 417.339 C 811.679 416.506 811.569 415.696 811.349 414.909 C 811.135 414.122 810.942 413.456 810.769 412.909 L 809.739 409.639 C 808.905 410.732 808.082 411.936 807.269 413.249 C 806.449 414.569 805.739 415.832 805.139 417.039 C 804.652 416.352 803.999 415.376 803.179 414.109 C 802.365 412.849 801.455 411.489 800.449 410.029 L 799.769 412.269 C 799.595 412.842 799.459 413.416 799.359 413.989 C 799.259 414.562 799.209 415.149 799.209 415.749 C 799.209 416.636 799.322 417.509 799.549 418.369 C 799.775 419.229 800.149 420.032 800.669 420.779 C 800.095 420.579 799.615 420.379 799.229 420.179 C 798.842 419.979 798.482 419.749 798.149 419.489 C 797.822 419.229 797.492 418.949 797.159 418.649 C 796.832 418.349 796.452 417.999 796.019 417.599 C 794.819 418.746 793.632 419.556 792.459 420.029 C 791.279 420.502 789.959 420.752 788.499 420.779 C 789.045 420.692 789.619 420.342 790.219 419.729 C 790.819 419.109 791.405 418.306 791.979 417.319 C 792.552 416.326 793.105 415.199 793.639 413.939 C 794.165 412.679 794.632 411.346 795.039 409.939 L 796.409 405.129 C 795.409 404.069 794.319 403.159 793.139 402.399 C 791.965 401.639 790.905 401.259 789.959 401.259 C 789.905 401.259 789.835 401.259 789.749 401.259 C 789.662 401.259 789.489 401.272 789.229 401.299 L 789.189 401.169 C 790.422 400.542 791.569 400.229 792.629 400.229 C 793.342 400.229 794.072 400.362 794.819 400.629 C 795.565 400.902 796.425 401.312 797.399 401.859 L 799.719 393.899 C 799.865 393.412 799.965 392.982 800.019 392.609 C 800.079 392.242 800.109 391.942 800.109 391.709 C 800.109 391.109 799.929 390.679 799.569 390.419 C 799.209 390.159 798.572 390.029 797.659 390.029 C 797.085 390.029 796.469 390.072 795.809 390.159 C 795.149 390.246 794.359 390.376 793.439 390.549 C 793.612 390.289 794.029 389.989 794.689 389.649 C 795.349 389.302 796.145 388.972 797.079 388.659 C 798.012 388.346 799.015 388.079 800.089 387.859 C 801.162 387.646 802.202 387.539 803.209 387.539 C 803.949 387.539 804.665 387.626 805.359 387.799 C 806.045 387.972 806.559 388.272 806.899 388.699 C 807.419 388.672 807.979 388.602 808.579 388.489 C 809.179 388.369 809.752 388.232 810.299 388.079 C 810.845 387.919 811.332 387.762 811.759 387.609 C 812.192 387.449 812.479 387.326 812.619 387.239 C 812.219 387.812 811.925 388.492 811.739 389.279 C 811.552 390.066 811.459 390.919 811.459 391.839 C 811.459 393.012 811.589 394.239 811.849 395.519 C 812.109 396.792 812.415 397.972 812.769 399.059 C 813.129 400.152 813.509 401.086 813.909 401.859 C 814.309 402.632 814.652 403.106 814.939 403.279 C 814.939 404.972 815.235 406.762 815.829 408.649 C 816.415 410.542 817.172 412.349 818.099 414.069 C 819.032 415.789 820.079 417.329 821.239 418.689 C 822.405 420.056 823.545 421.082 824.659 421.769 Z M 805.099 409.989 C 805.585 409.329 806.135 408.619 806.749 407.859 C 807.369 407.099 807.935 406.346 808.449 405.599 L 805.139 394.849 L 801.739 405.939 C 802.312 406.546 802.892 407.222 803.479 407.969 C 804.072 408.709 804.612 409.382 805.099 409.989 ZM 843.703 398.589 C 843.13 398.189 842.65 397.782 842.263 397.369 C 841.876 396.949 841.553 396.496 841.293 396.009 C 841.04 395.522 840.826 394.992 840.653 394.419 C 840.48 393.846 840.336 393.216 840.223 392.529 C 839.823 392.216 839.176 392.016 838.283 391.929 C 837.396 391.842 836.493 391.799 835.573 391.799 C 834.833 391.799 834.19 391.812 833.643 391.839 C 833.096 391.866 832.623 391.879 832.223 391.879 C 831.963 392.599 831.79 393.826 831.703 395.559 C 831.623 397.292 831.583 399.279 831.583 401.519 C 831.583 402.719 831.59 403.949 831.603 405.209 C 831.616 406.476 831.63 407.722 831.643 408.949 C 831.656 410.182 831.67 411.382 831.683 412.549 C 831.696 413.709 831.703 414.789 831.703 415.789 C 832.563 415.989 833.266 416.169 833.813 416.329 C 834.36 416.489 834.89 416.619 835.403 416.719 C 835.923 416.819 836.51 416.902 837.163 416.969 C 837.823 417.042 838.7 417.109 839.793 417.169 C 839.846 416.936 839.883 416.439 839.903 415.679 C 839.916 414.919 839.923 414.039 839.923 413.039 C 839.923 411.919 839.916 410.986 839.903 410.239 C 839.883 409.499 839.846 408.756 839.793 408.009 C 839.42 408.009 839.11 407.972 838.863 407.899 C 838.623 407.826 838.336 407.746 838.003 407.659 C 837.676 407.579 837.246 407.496 836.713 407.409 C 836.186 407.322 835.48 407.249 834.593 407.189 C 834.706 406.989 834.85 406.726 835.023 406.399 C 835.19 406.066 835.36 405.712 835.533 405.339 C 835.706 404.966 835.856 404.616 835.983 404.289 C 836.116 403.956 836.21 403.676 836.263 403.449 C 837.356 403.676 838.426 403.849 839.473 403.969 C 840.52 404.082 841.513 404.139 842.453 404.139 C 843.433 404.139 844.323 404.076 845.123 403.949 C 845.923 403.816 846.596 403.592 847.143 403.279 C 847.056 403.506 846.906 403.829 846.693 404.249 C 846.48 404.662 846.256 405.106 846.023 405.579 C 845.796 406.052 845.596 406.519 845.423 406.979 C 845.25 407.432 845.163 407.832 845.163 408.179 C 845.25 409.386 845.323 410.546 845.383 411.659 C 845.436 412.779 845.5 413.792 845.573 414.699 C 845.646 415.599 845.713 416.349 845.773 416.949 C 845.826 417.556 845.896 417.942 845.983 418.109 C 844.636 418.429 843.36 418.926 842.153 419.599 C 840.953 420.272 839.55 421.282 837.943 422.629 C 836.683 421.856 835.336 421.196 833.903 420.649 C 832.47 420.102 831.056 419.622 829.663 419.209 C 828.276 418.796 826.943 418.429 825.663 418.109 C 824.39 417.796 823.28 417.482 822.333 417.169 C 822.793 417.056 823.186 416.776 823.513 416.329 C 823.846 415.882 824.12 415.329 824.333 414.669 C 824.546 414.009 824.71 413.272 824.823 412.459 C 824.943 411.639 825.003 410.816 825.003 409.989 C 825.003 408.696 824.866 407.462 824.593 406.289 C 824.32 405.116 823.94 404.226 823.453 403.619 C 823.913 403.166 824.293 402.559 824.593 401.799 C 824.893 401.039 825.13 400.219 825.303 399.339 C 825.476 398.466 825.59 397.572 825.643 396.659 C 825.703 395.739 825.733 394.879 825.733 394.079 C 825.733 393.419 825.716 392.846 825.683 392.359 C 825.656 391.872 825.63 391.499 825.603 391.239 C 824.943 391.006 824.263 390.532 823.563 389.819 C 822.856 389.099 822.333 388.326 821.993 387.499 C 823.826 387.699 825.566 387.836 827.213 387.909 C 828.86 387.976 830.416 388.009 831.883 388.009 C 835.063 388.009 837.67 387.909 839.703 387.709 C 841.743 387.509 843.32 387.409 844.433 387.409 C 844.666 387.409 844.866 387.416 845.033 387.429 C 845.206 387.442 845.366 387.466 845.513 387.499 C 845.4 387.752 845.276 388.189 845.143 388.809 C 845.016 389.422 844.88 390.109 844.733 390.869 C 844.593 391.629 844.466 392.432 844.353 393.279 C 844.233 394.126 844.123 394.916 844.023 395.649 C 843.923 396.376 843.846 397.012 843.793 397.559 C 843.733 398.106 843.703 398.449 843.703 398.589 ZM 858.151 414.629 C 858.664 414.916 859.137 415.176 859.571 415.409 C 859.997 415.636 860.434 415.842 860.881 416.029 C 861.321 416.216 861.801 416.379 862.321 416.519 C 862.834 416.666 863.421 416.796 864.081 416.909 C 865.287 416.309 866.247 415.916 866.961 415.729 C 867.681 415.542 868.154 415.376 868.381 415.229 C 868.441 412.449 868.491 409.532 868.531 406.479 C 868.577 403.426 868.601 400.522 868.601 397.769 C 868.601 397.056 868.601 396.349 868.601 395.649 C 868.601 394.942 868.571 394.259 868.511 393.599 C 867.997 393.312 867.524 393.056 867.091 392.829 C 866.664 392.602 866.227 392.396 865.781 392.209 C 865.334 392.022 864.861 391.856 864.361 391.709 C 863.861 391.569 863.281 391.439 862.621 391.319 C 861.414 391.926 860.447 392.342 859.721 392.569 C 858.987 392.802 858.507 392.989 858.281 393.129 C 858.247 393.849 858.217 394.716 858.191 395.729 C 858.164 396.749 858.141 397.846 858.121 399.019 C 858.107 400.192 858.101 401.426 858.101 402.719 C 858.101 404.006 858.101 405.266 858.101 406.499 C 858.101 407.792 858.107 409.182 858.121 410.669 C 858.141 412.162 858.151 413.482 858.151 414.629 Z M 850.411 403.919 C 850.784 403.519 851.121 403.012 851.421 402.399 C 851.721 401.779 851.984 401.106 852.211 400.379 C 852.444 399.646 852.624 398.879 852.751 398.079 C 852.877 397.272 852.941 396.482 852.941 395.709 C 852.941 394.389 852.741 393.142 852.341 391.969 C 851.941 390.796 851.281 389.936 850.361 389.389 C 851.254 389.329 852.224 389.216 853.271 389.049 C 854.317 388.876 855.371 388.659 856.431 388.399 C 857.491 388.139 858.507 387.859 859.481 387.559 C 860.454 387.259 861.314 386.936 862.061 386.589 C 863.007 386.736 864.131 386.972 865.431 387.299 C 866.737 387.632 868.037 387.969 869.331 388.309 C 870.617 388.656 871.797 388.972 872.871 389.259 C 873.951 389.546 874.734 389.702 875.221 389.729 C 874.821 390.389 874.534 391.216 874.361 392.209 C 874.187 393.196 874.101 394.219 874.101 395.279 C 874.101 396.886 874.301 398.486 874.701 400.079 C 875.101 401.666 875.674 402.962 876.421 403.969 C 875.707 404.856 875.121 406.066 874.661 407.599 C 874.201 409.132 873.971 410.716 873.971 412.349 C 873.971 413.669 874.171 414.902 874.571 416.049 C 874.971 417.196 875.631 418.056 876.551 418.629 C 875.664 418.689 874.681 418.802 873.601 418.969 C 872.527 419.142 871.454 419.359 870.381 419.619 C 869.307 419.879 868.267 420.159 867.261 420.459 C 866.261 420.759 865.401 421.082 864.681 421.429 C 863.734 421.309 862.617 421.092 861.331 420.779 C 860.037 420.466 858.754 420.136 857.481 419.789 C 856.207 419.442 855.041 419.119 853.981 418.819 C 852.914 418.519 852.154 418.342 851.701 418.289 C 852.101 417.916 852.377 417.306 852.531 416.459 C 852.691 415.612 852.771 414.646 852.771 413.559 C 852.771 412.552 852.707 411.499 852.581 410.399 C 852.447 409.292 852.274 408.272 852.061 407.339 C 851.847 406.406 851.597 405.626 851.311 404.999 C 851.024 404.366 850.724 404.006 850.411 403.919 ZM 887.858 414.629 C 888.372 414.916 888.845 415.176 889.278 415.409 C 889.705 415.636 890.142 415.842 890.588 416.029 C 891.028 416.216 891.508 416.379 892.028 416.519 C 892.542 416.666 893.128 416.796 893.788 416.909 C 894.995 416.309 895.955 415.916 896.668 415.729 C 897.388 415.542 897.862 415.376 898.088 415.229 C 898.148 412.449 898.198 409.532 898.238 406.479 C 898.285 403.426 898.308 400.522 898.308 397.769 C 898.308 397.056 898.308 396.349 898.308 395.649 C 898.308 394.942 898.278 394.259 898.218 393.599 C 897.705 393.312 897.232 393.056 896.798 392.829 C 896.372 392.602 895.935 392.396 895.488 392.209 C 895.042 392.022 894.568 391.856 894.068 391.709 C 893.568 391.569 892.988 391.439 892.328 391.319 C 891.122 391.926 890.155 392.342 889.428 392.569 C 888.695 392.802 888.215 392.989 887.988 393.129 C 887.955 393.849 887.925 394.716 887.898 395.729 C 887.872 396.749 887.848 397.846 887.828 399.019 C 887.815 400.192 887.808 401.426 887.808 402.719 C 887.808 404.006 887.808 405.266 887.808 406.499 C 887.808 407.792 887.815 409.182 887.828 410.669 C 887.848 412.162 887.858 413.482 887.858 414.629 Z M 880.118 403.919 C 880.492 403.519 880.828 403.012 881.128 402.399 C 881.428 401.779 881.692 401.106 881.918 400.379 C 882.152 399.646 882.332 398.879 882.458 398.079 C 882.585 397.272 882.648 396.482 882.648 395.709 C 882.648 394.389 882.448 393.142 882.048 391.969 C 881.648 390.796 880.988 389.936 880.068 389.389 C 880.962 389.329 881.932 389.216 882.978 389.049 C 884.025 388.876 885.078 388.659 886.138 388.399 C 887.198 388.139 888.215 387.859 889.188 387.559 C 890.162 387.259 891.022 386.936 891.768 386.589 C 892.715 386.736 893.838 386.972 895.138 387.299 C 896.445 387.632 897.745 387.969 899.038 388.309 C 900.325 388.656 901.505 388.972 902.578 389.259 C 903.658 389.546 904.442 389.702 904.928 389.729 C 904.528 390.389 904.242 391.216 904.068 392.209 C 903.895 393.196 903.808 394.219 903.808 395.279 C 903.808 396.886 904.008 398.486 904.408 400.079 C 904.808 401.666 905.382 402.962 906.128 403.969 C 905.415 404.856 904.828 406.066 904.368 407.599 C 903.908 409.132 903.678 410.716 903.678 412.349 C 903.678 413.669 903.878 414.902 904.278 416.049 C 904.678 417.196 905.338 418.056 906.258 418.629 C 905.372 418.689 904.388 418.802 903.308 418.969 C 902.235 419.142 901.162 419.359 900.088 419.619 C 899.015 419.879 897.975 420.159 896.968 420.459 C 895.968 420.759 895.108 421.082 894.388 421.429 C 893.442 421.309 892.325 421.092 891.038 420.779 C 889.745 420.466 888.462 420.136 887.188 419.789 C 885.915 419.442 884.748 419.119 883.688 418.819 C 882.622 418.519 881.862 418.342 881.408 418.289 C 881.808 417.916 882.085 417.306 882.238 416.459 C 882.398 415.612 882.478 414.646 882.478 413.559 C 882.478 412.552 882.415 411.499 882.288 410.399 C 882.155 409.292 881.982 408.272 881.768 407.339 C 881.555 406.406 881.305 405.626 881.018 404.999 C 880.732 404.366 880.432 404.006 880.118 403.919 ZM 929.606 412.609 L 930.466 413.899 C 930.319 411.059 930.209 408.336 930.136 405.729 C 930.069 403.122 930.012 400.816 929.966 398.809 C 929.926 396.802 929.899 395.196 929.886 393.989 C 929.866 392.782 929.856 392.166 929.856 392.139 C 929.716 390.392 928.816 389.189 927.156 388.529 C 927.442 388.556 927.719 388.569 927.986 388.569 C 928.259 388.569 928.539 388.569 928.826 388.569 C 930.119 388.569 931.302 388.506 932.376 388.379 C 933.449 388.252 934.432 388.116 935.326 387.969 C 936.212 387.829 937.019 387.692 937.746 387.559 C 938.479 387.432 939.162 387.369 939.796 387.369 C 940.136 387.369 940.466 387.412 940.786 387.499 C 939.066 388.732 937.739 390.072 936.806 391.519 C 935.872 392.966 935.406 394.592 935.406 396.399 C 935.406 398.519 936.109 400.926 937.516 403.619 C 936.856 405.286 936.319 407.079 935.906 408.999 C 935.486 410.919 935.276 412.839 935.276 414.759 C 935.276 415.592 935.312 416.546 935.386 417.619 C 935.459 418.692 935.596 419.746 935.796 420.779 C 936.656 421.699 937.422 422.416 938.096 422.929 C 938.769 423.442 939.379 423.829 939.926 424.089 C 940.466 424.349 940.972 424.522 941.446 424.609 C 941.919 424.696 942.386 424.766 942.846 424.819 L 941.726 421.979 C 942.699 422.526 943.676 423.042 944.656 423.529 C 945.629 424.016 946.632 424.446 947.666 424.819 C 948.692 425.192 949.772 425.486 950.906 425.699 C 952.039 425.919 953.252 426.029 954.546 426.029 C 955.406 426.029 956.299 425.999 957.226 425.939 C 958.159 425.879 959.142 425.779 960.176 425.639 C 957.656 426.639 955.282 427.362 953.056 427.809 C 950.836 428.256 948.736 428.479 946.756 428.479 C 944.236 428.479 941.909 428.119 939.776 427.399 C 937.636 426.686 935.656 425.719 933.836 424.499 C 932.016 423.279 930.352 421.876 928.846 420.289 C 927.346 418.696 925.972 417.016 924.726 415.249 C 923.479 413.489 922.359 411.706 921.366 409.899 C 920.379 408.092 919.499 406.372 918.726 404.739 L 918.726 409.129 C 918.726 410.902 918.782 412.392 918.896 413.599 C 919.009 414.806 919.196 415.852 919.456 416.739 C 919.716 417.626 920.046 418.406 920.446 419.079 C 920.846 419.752 921.332 420.432 921.906 421.119 C 921.272 420.952 920.719 420.782 920.246 420.609 C 919.772 420.436 919.316 420.236 918.876 420.009 C 918.429 419.776 917.969 419.489 917.496 419.149 C 917.022 418.802 916.472 418.372 915.846 417.859 C 915.072 419.232 914.039 420.422 912.746 421.429 C 911.459 422.429 909.726 423.289 907.546 424.009 C 908.406 423.176 909.209 422.236 909.956 421.189 C 910.696 420.142 911.346 419.022 911.906 417.829 C 912.466 416.642 912.909 415.419 913.236 414.159 C 913.569 412.899 913.736 411.622 913.736 410.329 C 913.736 409.122 913.586 407.962 913.286 406.849 C 912.986 405.729 912.489 404.652 911.796 403.619 C 913.202 400.926 913.906 398.519 913.906 396.399 C 913.906 394.592 913.439 392.966 912.506 391.519 C 911.579 390.072 910.256 388.732 908.536 387.499 C 908.822 387.412 909.152 387.369 909.526 387.369 C 910.099 387.369 910.749 387.432 911.476 387.559 C 912.209 387.692 913.012 387.829 913.886 387.969 C 914.759 388.116 915.706 388.252 916.726 388.379 C 917.739 388.506 918.836 388.569 920.016 388.569 C 920.302 388.569 920.582 388.569 920.856 388.569 C 921.122 388.569 921.399 388.556 921.686 388.529 C 920.139 389.129 919.252 390.189 919.026 391.709 C 919.539 393.002 920.162 394.492 920.896 396.179 C 921.629 397.872 922.446 399.652 923.346 401.519 C 924.246 403.379 925.229 405.262 926.296 407.169 C 927.356 409.076 928.459 410.889 929.606 412.609 Z" transform="matrix(1.0748449563980103, 0, 0, 1.0837299823760986, -58.1131591796875, -37.175350189208984)" style="fill: rgb(255, 255, 255); line-height: 5.33079px; paint-order: fill; white-space: pre; mix-blend-mode: lighten;"/>
  <path d="M 714.481 445.67 C 713.908 445.27 713.428 444.863 713.041 444.45 C 712.654 444.03 712.331 443.577 712.071 443.09 C 711.818 442.603 711.604 442.073 711.431 441.5 C 711.258 440.927 711.114 440.297 711.001 439.61 C 710.601 439.297 709.954 439.097 709.061 439.01 C 708.174 438.923 707.271 438.88 706.351 438.88 C 705.611 438.88 704.968 438.893 704.421 438.92 C 703.874 438.947 703.401 438.96 703.001 438.96 C 702.741 439.68 702.568 440.907 702.481 442.64 C 702.401 444.373 702.361 446.36 702.361 448.6 C 702.361 449.8 702.368 451.03 702.381 452.29 C 702.394 453.557 702.408 454.803 702.421 456.03 C 702.434 457.263 702.448 458.463 702.461 459.63 C 702.474 460.79 702.481 461.87 702.481 462.87 C 703.341 463.07 704.044 463.25 704.591 463.41 C 705.138 463.57 705.668 463.7 706.181 463.8 C 706.701 463.9 707.288 463.983 707.941 464.05 C 708.601 464.123 709.478 464.19 710.571 464.25 C 710.624 464.017 710.661 463.52 710.681 462.76 C 710.694 462 710.701 461.12 710.701 460.12 C 710.701 459 710.694 458.067 710.681 457.32 C 710.661 456.58 710.624 455.837 710.571 455.09 C 710.198 455.09 709.888 455.053 709.641 454.98 C 709.401 454.907 709.114 454.827 708.781 454.74 C 708.454 454.66 708.024 454.577 707.491 454.49 C 706.964 454.403 706.258 454.33 705.371 454.27 C 705.484 454.07 705.628 453.807 705.801 453.48 C 705.968 453.147 706.138 452.793 706.311 452.42 C 706.484 452.047 706.634 451.697 706.761 451.37 C 706.894 451.037 706.988 450.757 707.041 450.53 C 708.134 450.757 709.204 450.93 710.251 451.05 C 711.298 451.163 712.291 451.22 713.231 451.22 C 714.211 451.22 715.101 451.157 715.901 451.03 C 716.701 450.897 717.374 450.673 717.921 450.36 C 717.834 450.587 717.684 450.91 717.471 451.33 C 717.258 451.743 717.034 452.187 716.801 452.66 C 716.574 453.133 716.374 453.6 716.201 454.06 C 716.028 454.513 715.941 454.913 715.941 455.26 C 716.028 456.467 716.101 457.627 716.161 458.74 C 716.214 459.86 716.278 460.873 716.351 461.78 C 716.424 462.68 716.491 463.43 716.551 464.03 C 716.604 464.637 716.674 465.023 716.761 465.19 C 715.414 465.51 714.138 466.007 712.931 466.68 C 711.731 467.353 710.328 468.363 708.721 469.71 C 707.461 468.937 706.114 468.277 704.681 467.73 C 703.248 467.183 701.834 466.703 700.441 466.29 C 699.054 465.877 697.721 465.51 696.441 465.19 C 695.168 464.877 694.058 464.563 693.111 464.25 C 693.571 464.137 693.964 463.857 694.291 463.41 C 694.624 462.963 694.898 462.41 695.111 461.75 C 695.324 461.09 695.488 460.353 695.601 459.54 C 695.721 458.72 695.781 457.897 695.781 457.07 C 695.781 455.777 695.644 454.543 695.371 453.37 C 695.098 452.197 694.718 451.307 694.231 450.7 C 694.691 450.247 695.071 449.64 695.371 448.88 C 695.671 448.12 695.908 447.3 696.081 446.42 C 696.254 445.547 696.368 444.653 696.421 443.74 C 696.481 442.82 696.511 441.96 696.511 441.16 C 696.511 440.5 696.494 439.927 696.461 439.44 C 696.434 438.953 696.408 438.58 696.381 438.32 C 695.721 438.087 695.041 437.613 694.341 436.9 C 693.634 436.18 693.111 435.407 692.771 434.58 C 694.604 434.78 696.344 434.917 697.991 434.99 C 699.638 435.057 701.194 435.09 702.661 435.09 C 705.841 435.09 708.448 434.99 710.481 434.79 C 712.521 434.59 714.098 434.49 715.211 434.49 C 715.444 434.49 715.644 434.497 715.811 434.51 C 715.984 434.523 716.144 434.547 716.291 434.58 C 716.178 434.833 716.054 435.27 715.921 435.89 C 715.794 436.503 715.658 437.19 715.511 437.95 C 715.371 438.71 715.244 439.513 715.131 440.36 C 715.011 441.207 714.901 441.997 714.801 442.73 C 714.701 443.457 714.624 444.093 714.571 444.64 C 714.511 445.187 714.481 445.53 714.481 445.67 ZM 754.809 468.85 L 754.769 468.98 C 753.135 468.407 751.522 467.783 749.929 467.11 C 748.342 466.437 746.772 465.64 745.219 464.72 C 744.845 465.093 744.515 465.41 744.229 465.67 C 743.942 465.923 743.642 466.143 743.329 466.33 C 743.015 466.517 742.679 466.677 742.319 466.81 C 741.959 466.937 741.535 467.057 741.049 467.17 C 741.335 466.83 741.535 466.413 741.649 465.92 C 741.769 465.433 741.829 464.933 741.829 464.42 C 741.829 463.587 741.719 462.777 741.499 461.99 C 741.285 461.203 741.092 460.537 740.919 459.99 L 739.889 456.72 C 739.055 457.813 738.232 459.017 737.419 460.33 C 736.599 461.65 735.889 462.913 735.289 464.12 C 734.802 463.433 734.149 462.457 733.329 461.19 C 732.515 459.93 731.605 458.57 730.599 457.11 L 729.919 459.35 C 729.745 459.923 729.609 460.497 729.509 461.07 C 729.409 461.643 729.359 462.23 729.359 462.83 C 729.359 463.717 729.472 464.59 729.699 465.45 C 729.925 466.31 730.299 467.113 730.819 467.86 C 730.245 467.66 729.765 467.46 729.379 467.26 C 728.992 467.06 728.632 466.83 728.299 466.57 C 727.972 466.31 727.642 466.03 727.309 465.73 C 726.982 465.43 726.602 465.08 726.169 464.68 C 724.969 465.827 723.782 466.637 722.609 467.11 C 721.429 467.583 720.109 467.833 718.649 467.86 C 719.195 467.773 719.769 467.423 720.369 466.81 C 720.969 466.19 721.555 465.387 722.129 464.4 C 722.702 463.407 723.255 462.28 723.789 461.02 C 724.315 459.76 724.782 458.427 725.189 457.02 L 726.559 452.21 C 725.559 451.15 724.469 450.24 723.289 449.48 C 722.115 448.72 721.055 448.34 720.109 448.34 C 720.055 448.34 719.985 448.34 719.899 448.34 C 719.812 448.34 719.639 448.353 719.379 448.38 L 719.339 448.25 C 720.572 447.623 721.719 447.31 722.779 447.31 C 723.492 447.31 724.222 447.443 724.969 447.71 C 725.715 447.983 726.575 448.393 727.549 448.94 L 729.869 440.98 C 730.015 440.493 730.115 440.063 730.169 439.69 C 730.229 439.323 730.259 439.023 730.259 438.79 C 730.259 438.19 730.079 437.76 729.719 437.5 C 729.359 437.24 728.722 437.11 727.809 437.11 C 727.235 437.11 726.619 437.153 725.959 437.24 C 725.299 437.327 724.509 437.457 723.589 437.63 C 723.762 437.37 724.179 437.07 724.839 436.73 C 725.499 436.383 726.295 436.053 727.229 435.74 C 728.162 435.427 729.165 435.16 730.239 434.94 C 731.312 434.727 732.352 434.62 733.359 434.62 C 734.099 434.62 734.815 434.707 735.509 434.88 C 736.195 435.053 736.709 435.353 737.049 435.78 C 737.569 435.753 738.129 435.683 738.729 435.57 C 739.329 435.45 739.902 435.313 740.449 435.16 C 740.995 435 741.482 434.843 741.909 434.69 C 742.342 434.53 742.629 434.407 742.769 434.32 C 742.369 434.893 742.075 435.573 741.889 436.36 C 741.702 437.147 741.609 438 741.609 438.92 C 741.609 440.093 741.739 441.32 741.999 442.6 C 742.259 443.873 742.565 445.053 742.919 446.14 C 743.279 447.233 743.659 448.167 744.059 448.94 C 744.459 449.713 744.802 450.187 745.089 450.36 C 745.089 452.053 745.385 453.843 745.979 455.73 C 746.565 457.623 747.322 459.43 748.249 461.15 C 749.182 462.87 750.229 464.41 751.389 465.77 C 752.555 467.137 753.695 468.163 754.809 468.85 Z M 735.249 457.07 C 735.735 456.41 736.285 455.7 736.899 454.94 C 737.519 454.18 738.085 453.427 738.599 452.68 L 735.289 441.93 L 731.889 453.02 C 732.462 453.627 733.042 454.303 733.629 455.05 C 734.222 455.79 734.762 456.463 735.249 457.07 ZM 769.943 464.03 L 769.213 463.9 L 761.083 449.63 L 761.083 456.21 C 761.083 457.983 761.14 459.473 761.253 460.68 C 761.366 461.887 761.553 462.933 761.813 463.82 C 762.073 464.707 762.403 465.487 762.803 466.16 C 763.203 466.833 763.69 467.513 764.263 468.2 C 763.636 468.033 763.086 467.863 762.613 467.69 C 762.14 467.517 761.68 467.317 761.233 467.09 C 760.786 466.857 760.326 466.57 759.853 466.23 C 759.386 465.883 758.836 465.453 758.203 464.94 C 757.803 465.627 757.366 466.263 756.893 466.85 C 756.42 467.437 755.86 467.99 755.213 468.51 C 754.566 469.023 753.83 469.493 753.003 469.92 C 752.17 470.353 751.193 470.743 750.073 471.09 C 750.933 470.257 751.736 469.317 752.483 468.27 C 753.23 467.223 753.883 466.103 754.443 464.91 C 755.003 463.723 755.446 462.5 755.773 461.24 C 756.1 459.98 756.263 458.703 756.263 457.41 C 756.263 456.203 756.113 455.043 755.813 453.93 C 755.513 452.81 755.02 451.733 754.333 450.7 C 755.74 448.007 756.443 445.6 756.443 443.48 C 756.443 441.673 755.976 440.047 755.043 438.6 C 754.11 437.153 752.783 435.813 751.063 434.58 C 751.35 434.493 751.68 434.45 752.053 434.45 C 752.626 434.45 753.263 434.513 753.963 434.64 C 754.67 434.773 755.446 434.91 756.293 435.05 C 757.133 435.197 758.056 435.333 759.063 435.46 C 760.063 435.587 761.166 435.65 762.373 435.65 C 762.66 435.65 762.94 435.65 763.213 435.65 C 763.486 435.65 763.766 435.637 764.053 435.61 C 763.793 435.81 763.556 436.067 763.343 436.38 C 763.13 436.7 762.936 437.047 762.763 437.42 C 762.59 437.787 762.453 438.173 762.353 438.58 C 762.253 438.98 762.203 439.35 762.203 439.69 L 770.763 454.44 L 777.893 439.95 C 777.553 438.95 777.16 438.107 776.713 437.42 C 776.266 436.727 775.686 436.08 774.973 435.48 C 775.173 435.54 775.36 435.57 775.533 435.57 C 775.706 435.57 775.893 435.57 776.093 435.57 C 777.066 435.57 778.083 435.533 779.143 435.46 C 780.203 435.387 781.263 435.287 782.323 435.16 C 783.383 435.027 784.416 434.883 785.423 434.73 C 786.423 434.57 787.383 434.42 788.303 434.28 C 787.443 434.88 786.746 435.53 786.213 436.23 C 785.686 436.937 785.286 437.677 785.013 438.45 C 784.74 439.223 784.553 440.033 784.453 440.88 C 784.353 441.727 784.303 442.593 784.303 443.48 C 784.303 444.567 784.49 445.7 784.863 446.88 C 785.236 448.053 785.78 449.327 786.493 450.7 C 785.98 451.62 785.516 452.767 785.103 454.14 C 784.683 455.52 784.473 456.897 784.473 458.27 C 784.473 459.763 784.74 461.153 785.273 462.44 C 785.8 463.733 786.566 464.693 787.573 465.32 C 786.973 465.64 786.37 466.007 785.763 466.42 C 785.163 466.833 784.606 467.277 784.093 467.75 C 783.573 468.223 783.113 468.703 782.713 469.19 C 782.313 469.677 782.013 470.137 781.813 470.57 C 781.666 470.137 781.413 469.663 781.053 469.15 C 780.7 468.637 780.263 468.137 779.743 467.65 C 779.23 467.157 778.673 466.703 778.073 466.29 C 777.466 465.877 776.863 465.553 776.263 465.32 C 776.723 464.92 777.09 464.39 777.363 463.73 C 777.63 463.07 777.83 462.34 777.963 461.54 C 778.09 460.733 778.176 459.873 778.223 458.96 C 778.263 458.04 778.283 457.123 778.283 456.21 L 778.283 448.08 L 769.943 464.03 ZM 791.906 466.7 L 791.866 466.57 C 792.292 466.31 792.672 465.823 793.006 465.11 C 793.332 464.39 793.619 463.573 793.866 462.66 C 794.106 461.74 794.286 460.787 794.406 459.8 C 794.519 458.807 794.576 457.897 794.576 457.07 C 794.576 455.777 794.439 454.543 794.166 453.37 C 793.892 452.197 793.512 451.307 793.026 450.7 C 793.486 450.247 793.866 449.64 794.166 448.88 C 794.466 448.12 794.702 447.3 794.876 446.42 C 795.049 445.547 795.162 444.653 795.216 443.74 C 795.276 442.82 795.306 441.96 795.306 441.16 C 795.306 440.5 795.292 439.927 795.266 439.44 C 795.232 438.953 795.202 438.58 795.176 438.32 C 794.516 438.087 793.836 437.613 793.136 436.9 C 792.429 436.18 791.906 435.407 791.566 434.58 C 793.399 434.78 795.139 434.917 796.786 434.99 C 798.432 435.057 799.989 435.09 801.456 435.09 C 804.576 435.09 807.099 434.99 809.026 434.79 C 810.946 434.59 812.462 434.49 813.576 434.49 C 813.809 434.49 814.012 434.497 814.186 434.51 C 814.352 434.523 814.509 434.547 814.656 434.58 C 814.482 434.893 814.302 435.467 814.116 436.3 C 813.929 437.127 813.749 438.037 813.576 439.03 C 813.409 440.017 813.259 440.977 813.126 441.91 C 812.999 442.843 812.906 443.537 812.846 443.99 L 812.546 444.12 C 811.546 443.547 810.822 442.903 810.376 442.19 C 809.929 441.47 809.592 440.61 809.366 439.61 C 808.966 439.297 808.462 439.097 807.856 439.01 C 807.256 438.923 806.499 438.88 805.586 438.88 C 804.839 438.88 804.122 438.893 803.436 438.92 C 802.742 438.947 802.196 438.96 801.796 438.96 C 801.569 440.08 801.399 441.443 801.286 443.05 C 801.166 444.657 801.079 446.363 801.026 448.17 C 801.426 448.223 801.832 448.257 802.246 448.27 C 802.666 448.283 802.989 448.29 803.216 448.29 C 803.816 448.29 804.409 448.057 804.996 447.59 C 805.589 447.117 806.156 446.507 806.696 445.76 C 806.842 446.1 806.986 446.493 807.126 446.94 C 807.272 447.387 807.439 447.83 807.626 448.27 C 807.812 448.717 808.019 449.14 808.246 449.54 C 808.479 449.94 808.752 450.24 809.066 450.44 C 808.806 450.7 808.556 451.03 808.316 451.43 C 808.069 451.837 807.839 452.267 807.626 452.72 C 807.412 453.18 807.212 453.64 807.026 454.1 C 806.839 454.56 806.672 454.977 806.526 455.35 C 806.352 455.03 806.152 454.683 805.926 454.31 C 805.699 453.943 805.456 453.6 805.196 453.28 C 804.936 452.967 804.656 452.703 804.356 452.49 C 804.056 452.27 803.732 452.16 803.386 452.16 C 803.132 452.16 802.759 452.177 802.266 452.21 C 801.779 452.237 801.336 452.293 800.936 452.38 L 800.936 453.15 C 800.936 454.957 800.959 456.67 801.006 458.29 C 801.046 459.91 801.122 461.323 801.236 462.53 L 808.506 463.26 C 808.906 461.48 809.616 459.903 810.636 458.53 C 811.649 457.15 812.746 455.817 813.926 454.53 L 814.186 454.62 C 814.099 455.273 814.039 455.923 814.006 456.57 C 813.979 457.217 813.966 457.84 813.966 458.44 C 813.966 459.933 814.039 461.283 814.186 462.49 C 814.326 463.69 814.496 464.59 814.696 465.19 C 814.209 465.25 813.729 465.33 813.256 465.43 C 812.782 465.53 812.272 465.693 811.726 465.92 C 811.186 466.153 810.606 466.47 809.986 466.87 C 809.372 467.27 808.692 467.787 807.946 468.42 C 805.539 467.7 803.159 467.163 800.806 466.81 C 798.459 466.45 796.339 466.27 794.446 466.27 C 793.526 466.27 792.679 466.413 791.906 466.7 ZM 827.59 438.15 C 827.13 439.01 826.8 439.92 826.6 440.88 C 826.4 441.84 826.3 442.82 826.3 443.82 C 826.3 444.653 826.356 445.487 826.47 446.32 C 826.59 447.147 826.75 447.977 826.95 448.81 C 827.636 448.61 828.36 448.437 829.12 448.29 C 829.88 448.15 830.726 448.037 831.66 447.95 C 832.586 447.863 833.64 447.793 834.82 447.74 C 835.993 447.68 837.34 447.62 838.86 447.56 C 838.773 448.707 838.686 450.027 838.6 451.52 C 838.513 453.013 838.47 454.59 838.47 456.25 C 838.47 457.823 838.533 459.407 838.66 461 C 838.793 462.593 839.046 464.12 839.42 465.58 C 837.926 465.58 836.493 465.81 835.12 466.27 C 833.74 466.73 832.62 467.373 831.76 468.2 C 831.16 467.833 830.48 467.453 829.72 467.06 C 828.96 466.673 828.05 466.323 826.99 466.01 C 825.93 465.697 824.69 465.417 823.27 465.17 C 821.85 464.93 820.18 464.767 818.26 464.68 C 818.92 463.907 819.443 463.097 819.83 462.25 C 820.216 461.403 820.41 460.507 820.41 459.56 C 820.41 459.247 820.396 458.947 820.37 458.66 C 820.343 458.373 820.286 458.07 820.2 457.75 C 820.6 457.75 821.156 457.917 821.87 458.25 C 822.59 458.577 823.436 459 824.41 459.52 C 825.383 460.033 826.48 460.627 827.7 461.3 C 828.92 461.973 830.246 462.653 831.68 463.34 C 831.933 462.627 832.14 461.66 832.3 460.44 C 832.46 459.22 832.54 457.967 832.54 456.68 C 832.54 455.56 832.466 454.527 832.32 453.58 C 832.18 452.633 831.95 451.96 831.63 451.56 C 830.856 451.62 829.996 451.707 829.05 451.82 C 828.11 451.933 827.136 452.077 826.13 452.25 C 825.13 452.423 824.126 452.61 823.12 452.81 C 822.12 453.01 821.16 453.223 820.24 453.45 C 820.413 452.25 820.57 450.96 820.71 449.58 C 820.856 448.207 820.93 446.79 820.93 445.33 C 820.93 443.697 820.77 442.12 820.45 440.6 C 820.136 439.08 819.523 437.717 818.61 436.51 C 818.896 436.543 819.296 436.6 819.81 436.68 C 820.323 436.767 820.953 436.81 821.7 436.81 C 823.333 436.81 824.723 436.523 825.87 435.95 C 827.016 435.377 827.993 434.403 828.8 433.03 C 829.226 433.317 829.75 433.617 830.37 433.93 C 830.983 434.25 831.656 434.537 832.39 434.79 C 833.116 435.05 833.896 435.26 834.73 435.42 C 835.563 435.573 836.423 435.65 837.31 435.65 C 837.883 435.65 838.443 435.6 838.99 435.5 C 839.53 435.4 840.06 435.28 840.58 435.14 C 840.006 436.66 839.233 437.933 838.26 438.96 C 837.28 439.993 836.203 440.51 835.03 440.51 C 834.63 440.51 834.106 440.447 833.46 440.32 C 832.813 440.187 832.14 440.013 831.44 439.8 C 830.74 439.587 830.046 439.337 829.36 439.05 C 828.666 438.763 828.076 438.463 827.59 438.15 ZM 862.628 438.15 C 862.168 439.01 861.838 439.92 861.638 440.88 C 861.438 441.84 861.338 442.82 861.338 443.82 C 861.338 444.653 861.395 445.487 861.508 446.32 C 861.628 447.147 861.788 447.977 861.988 448.81 C 862.675 448.61 863.398 448.437 864.158 448.29 C 864.918 448.15 865.765 448.037 866.698 447.95 C 867.625 447.863 868.678 447.793 869.858 447.74 C 871.032 447.68 872.378 447.62 873.898 447.56 C 873.812 448.707 873.725 450.027 873.638 451.52 C 873.552 453.013 873.508 454.59 873.508 456.25 C 873.508 457.823 873.572 459.407 873.698 461 C 873.832 462.593 874.085 464.12 874.458 465.58 C 872.965 465.58 871.532 465.81 870.158 466.27 C 868.778 466.73 867.658 467.373 866.798 468.2 C 866.198 467.833 865.518 467.453 864.758 467.06 C 863.998 466.673 863.088 466.323 862.028 466.01 C 860.968 465.697 859.728 465.417 858.308 465.17 C 856.888 464.93 855.218 464.767 853.298 464.68 C 853.958 463.907 854.482 463.097 854.868 462.25 C 855.255 461.403 855.448 460.507 855.448 459.56 C 855.448 459.247 855.435 458.947 855.408 458.66 C 855.382 458.373 855.325 458.07 855.238 457.75 C 855.638 457.75 856.195 457.917 856.908 458.25 C 857.628 458.577 858.475 459 859.448 459.52 C 860.422 460.033 861.518 460.627 862.738 461.3 C 863.958 461.973 865.285 462.653 866.718 463.34 C 866.972 462.627 867.178 461.66 867.338 460.44 C 867.498 459.22 867.578 457.967 867.578 456.68 C 867.578 455.56 867.505 454.527 867.358 453.58 C 867.218 452.633 866.988 451.96 866.668 451.56 C 865.895 451.62 865.035 451.707 864.088 451.82 C 863.148 451.933 862.175 452.077 861.168 452.25 C 860.168 452.423 859.165 452.61 858.158 452.81 C 857.158 453.01 856.198 453.223 855.278 453.45 C 855.452 452.25 855.608 450.96 855.748 449.58 C 855.895 448.207 855.968 446.79 855.968 445.33 C 855.968 443.697 855.808 442.12 855.488 440.6 C 855.175 439.08 854.562 437.717 853.648 436.51 C 853.935 436.543 854.335 436.6 854.848 436.68 C 855.362 436.767 855.992 436.81 856.738 436.81 C 858.372 436.81 859.762 436.523 860.908 435.95 C 862.055 435.377 863.032 434.403 863.838 433.03 C 864.265 433.317 864.788 433.617 865.408 433.93 C 866.022 434.25 866.695 434.537 867.428 434.79 C 868.155 435.05 868.935 435.26 869.768 435.42 C 870.602 435.573 871.462 435.65 872.348 435.65 C 872.922 435.65 873.482 435.6 874.028 435.5 C 874.568 435.4 875.098 435.28 875.618 435.14 C 875.045 436.66 874.272 437.933 873.298 438.96 C 872.318 439.993 871.242 440.51 870.068 440.51 C 869.668 440.51 869.145 440.447 868.498 440.32 C 867.852 440.187 867.178 440.013 866.478 439.8 C 865.778 439.587 865.085 439.337 864.398 439.05 C 863.705 438.763 863.115 438.463 862.628 438.15 ZM 906.314 435.05 L 906.404 435.22 C 905.71 435.827 904.957 436.4 904.144 436.94 C 903.324 437.487 902.47 437.96 901.584 438.36 C 900.697 438.76 899.78 439.083 898.834 439.33 C 897.887 439.57 896.94 439.69 895.994 439.69 C 895.68 439.69 895.38 439.69 895.094 439.69 C 894.807 439.69 894.52 439.677 894.234 439.65 C 894.147 440.51 894.104 441.383 894.104 442.27 C 894.104 444.71 894.117 447.163 894.144 449.63 C 894.17 452.097 894.184 454.72 894.184 457.5 C 894.184 458.987 894.45 460.427 894.984 461.82 C 895.517 463.207 896.284 464.217 897.284 464.85 C 896.077 465.423 895.067 466.033 894.254 466.68 C 893.434 467.327 892.71 468.25 892.084 469.45 C 891.597 468.277 890.837 467.337 889.804 466.63 C 888.77 465.93 887.61 465.337 886.324 464.85 C 886.897 464.017 887.327 462.933 887.614 461.6 C 887.9 460.267 888.044 458.97 888.044 457.71 C 888.044 456.477 888.044 455.38 888.044 454.42 C 888.044 453.46 888.05 452.563 888.064 451.73 C 888.077 450.903 888.09 450.103 888.104 449.33 C 888.117 448.557 888.13 447.723 888.144 446.83 C 888.157 445.943 888.164 444.97 888.164 443.91 C 888.164 442.85 888.164 441.603 888.164 440.17 C 888.164 439.937 888.164 439.72 888.164 439.52 C 888.164 439.32 888.137 439.107 888.084 438.88 C 886.19 438.533 884.39 438.18 882.684 437.82 C 880.977 437.467 879.424 437.29 878.024 437.29 C 877.39 437.29 876.714 437.36 875.994 437.5 L 875.954 437.37 C 877.5 436.91 878.77 436.353 879.764 435.7 C 880.75 435.04 881.747 434.25 882.754 433.33 C 884.24 433.763 885.507 434.107 886.554 434.36 C 887.6 434.62 888.577 434.82 889.484 434.96 C 890.384 435.107 891.27 435.2 892.144 435.24 C 893.017 435.287 894.014 435.31 895.134 435.31 C 894.847 434.823 894.647 434.387 894.534 434 C 894.42 433.613 894.347 433.203 894.314 432.77 C 895.26 433.37 896.144 433.837 896.964 434.17 C 897.777 434.497 898.557 434.74 899.304 434.9 C 900.05 435.06 900.797 435.153 901.544 435.18 C 902.29 435.207 903.064 435.22 903.864 435.22 C 904.324 435.22 904.747 435.207 905.134 435.18 C 905.52 435.153 905.914 435.11 906.314 435.05 ZM 915.127 461.71 C 915.641 461.997 916.114 462.257 916.547 462.49 C 916.974 462.717 917.411 462.923 917.857 463.11 C 918.297 463.297 918.777 463.46 919.297 463.6 C 919.811 463.747 920.397 463.877 921.057 463.99 C 922.264 463.39 923.224 462.997 923.937 462.81 C 924.657 462.623 925.131 462.457 925.357 462.31 C 925.417 459.53 925.467 456.613 925.507 453.56 C 925.554 450.507 925.577 447.603 925.577 444.85 C 925.577 444.137 925.577 443.43 925.577 442.73 C 925.577 442.023 925.547 441.34 925.487 440.68 C 924.974 440.393 924.501 440.137 924.067 439.91 C 923.641 439.683 923.204 439.477 922.757 439.29 C 922.311 439.103 921.837 438.937 921.337 438.79 C 920.837 438.65 920.257 438.52 919.597 438.4 C 918.391 439.007 917.424 439.423 916.697 439.65 C 915.964 439.883 915.484 440.07 915.257 440.21 C 915.224 440.93 915.194 441.797 915.167 442.81 C 915.141 443.83 915.117 444.927 915.097 446.1 C 915.084 447.273 915.077 448.507 915.077 449.8 C 915.077 451.087 915.077 452.347 915.077 453.58 C 915.077 454.873 915.084 456.263 915.097 457.75 C 915.117 459.243 915.127 460.563 915.127 461.71 Z M 907.387 451 C 907.761 450.6 908.097 450.093 908.397 449.48 C 908.697 448.86 908.961 448.187 909.187 447.46 C 909.421 446.727 909.601 445.96 909.727 445.16 C 909.854 444.353 909.917 443.563 909.917 442.79 C 909.917 441.47 909.717 440.223 909.317 439.05 C 908.917 437.877 908.257 437.017 907.337 436.47 C 908.231 436.41 909.201 436.297 910.247 436.13 C 911.294 435.957 912.347 435.74 913.407 435.48 C 914.467 435.22 915.484 434.94 916.457 434.64 C 917.431 434.34 918.291 434.017 919.037 433.67 C 919.984 433.817 921.107 434.053 922.407 434.38 C 923.714 434.713 925.014 435.05 926.307 435.39 C 927.594 435.737 928.774 436.053 929.847 436.34 C 930.927 436.627 931.711 436.783 932.197 436.81 C 931.797 437.47 931.511 438.297 931.337 439.29 C 931.164 440.277 931.077 441.3 931.077 442.36 C 931.077 443.967 931.277 445.567 931.677 447.16 C 932.077 448.747 932.651 450.043 933.397 451.05 C 932.684 451.937 932.097 453.147 931.637 454.68 C 931.177 456.213 930.947 457.797 930.947 459.43 C 930.947 460.75 931.147 461.983 931.547 463.13 C 931.947 464.277 932.607 465.137 933.527 465.71 C 932.641 465.77 931.657 465.883 930.577 466.05 C 929.504 466.223 928.431 466.44 927.357 466.7 C 926.284 466.96 925.244 467.24 924.237 467.54 C 923.237 467.84 922.377 468.163 921.657 468.51 C 920.711 468.39 919.594 468.173 918.307 467.86 C 917.014 467.547 915.731 467.217 914.457 466.87 C 913.184 466.523 912.017 466.2 910.957 465.9 C 909.891 465.6 909.131 465.423 908.677 465.37 C 909.077 464.997 909.354 464.387 909.507 463.54 C 909.667 462.693 909.747 461.727 909.747 460.64 C 909.747 459.633 909.684 458.58 909.557 457.48 C 909.424 456.373 909.251 455.353 909.037 454.42 C 908.824 453.487 908.574 452.707 908.287 452.08 C 908.001 451.447 907.701 451.087 907.387 451 ZM 963.365 464.89 C 962.158 465.75 961.218 466.79 960.545 468.01 C 959.871 469.23 959.335 470.44 958.935 471.64 C 958.795 471.067 958.588 470.453 958.315 469.8 C 958.041 469.14 957.705 468.5 957.305 467.88 C 956.898 467.267 956.431 466.693 955.905 466.16 C 955.371 465.633 954.791 465.21 954.165 464.89 C 954.418 464.637 954.611 464.3 954.745 463.88 C 954.871 463.467 954.971 462.88 955.045 462.12 C 955.118 461.36 955.168 460.393 955.195 459.22 C 955.221 458.04 955.265 456.563 955.325 454.79 C 955.211 454.73 954.831 454.457 954.185 453.97 C 953.538 453.483 952.841 452.94 952.095 452.34 C 951.095 452.94 950.115 453.527 949.155 454.1 C 948.195 454.673 947.311 455.203 946.505 455.69 C 946.625 457.843 946.791 459.873 947.005 461.78 C 947.218 463.68 947.511 465.42 947.885 467 C 947.138 466.627 946.471 466.37 945.885 466.23 C 945.298 466.083 944.731 466.01 944.185 466.01 C 943.698 466.01 943.218 466.053 942.745 466.14 C 942.271 466.227 941.785 466.32 941.285 466.42 C 940.785 466.52 940.261 466.613 939.715 466.7 C 939.168 466.787 938.565 466.83 937.905 466.83 C 937.765 466.83 937.608 466.83 937.435 466.83 C 937.261 466.83 937.105 466.817 936.965 466.79 C 937.565 466.417 938.121 465.92 938.635 465.3 C 939.155 464.687 939.601 464.007 939.975 463.26 C 940.348 462.513 940.641 461.723 940.855 460.89 C 941.068 460.063 941.175 459.247 941.175 458.44 C 941.175 456.98 941.005 455.553 940.665 454.16 C 940.318 452.773 939.771 451.62 939.025 450.7 C 939.831 449.213 940.378 447.803 940.665 446.47 C 940.951 445.137 941.095 443.81 941.095 442.49 C 941.095 441.717 941.051 440.87 940.965 439.95 C 939.758 439.777 938.831 439.327 938.185 438.6 C 937.545 437.867 937.225 436.727 937.225 435.18 C 938.425 435.44 939.411 435.62 940.185 435.72 C 940.958 435.82 941.748 435.87 942.555 435.87 C 943.015 435.87 943.515 435.847 944.055 435.8 C 944.601 435.76 945.181 435.653 945.795 435.48 C 946.415 435.307 947.081 435.043 947.795 434.69 C 948.515 434.33 949.275 433.833 950.075 433.2 C 950.395 433.46 951.025 433.79 951.965 434.19 C 952.911 434.59 954.018 434.977 955.285 435.35 C 956.545 435.723 957.885 436.04 959.305 436.3 C 960.718 436.553 962.058 436.68 963.325 436.68 C 963.725 436.68 964.111 436.667 964.485 436.64 C 964.858 436.613 965.245 436.57 965.645 436.51 C 965.331 437.17 964.715 437.853 963.795 438.56 C 962.875 439.26 961.858 439.823 960.745 440.25 C 960.658 440.657 960.615 441.087 960.615 441.54 C 960.615 442 960.635 442.49 960.675 443.01 C 960.721 443.523 960.778 444.037 960.845 444.55 C 960.918 445.07 961.011 445.56 961.125 446.02 C 961.245 446.473 961.375 446.86 961.515 447.18 C 961.228 447.267 960.735 447.487 960.035 447.84 C 959.328 448.2 958.488 448.667 957.515 449.24 C 958.175 449.84 958.891 450.47 959.665 451.13 C 960.438 451.79 961.228 452.363 962.035 452.85 C 961.888 453.17 961.778 453.717 961.705 454.49 C 961.638 455.263 961.605 456.15 961.605 457.15 C 961.605 457.897 961.631 458.65 961.685 459.41 C 961.745 460.17 961.845 460.9 961.985 461.6 C 962.131 462.307 962.311 462.947 962.525 463.52 C 962.738 464.093 963.018 464.55 963.365 464.89 Z M 954.805 445.24 L 954.595 439.95 C 953.048 439.723 951.615 439.523 950.295 439.35 C 948.975 439.177 947.668 438.933 946.375 438.62 C 946.321 439.333 946.295 440.107 946.295 440.94 C 946.295 441.773 946.295 442.62 946.295 443.48 L 946.295 446.83 L 946.295 450.23 C 947.208 449.683 948.155 449.13 949.135 448.57 C 950.108 448.017 951.008 447.503 951.835 447.03 C 952.668 446.557 953.358 446.153 953.905 445.82 C 954.451 445.493 954.751 445.3 954.805 445.24 ZM 967.571 466.7 L 967.531 466.57 C 967.958 466.31 968.338 465.823 968.671 465.11 C 968.998 464.39 969.284 463.573 969.531 462.66 C 969.771 461.74 969.951 460.787 970.071 459.8 C 970.184 458.807 970.241 457.897 970.241 457.07 C 970.241 455.777 970.104 454.543 969.831 453.37 C 969.558 452.197 969.178 451.307 968.691 450.7 C 969.151 450.247 969.531 449.64 969.831 448.88 C 970.131 448.12 970.368 447.3 970.541 446.42 C 970.714 445.547 970.828 444.653 970.881 443.74 C 970.941 442.82 970.971 441.96 970.971 441.16 C 970.971 440.5 970.958 439.927 970.931 439.44 C 970.898 438.953 970.868 438.58 970.841 438.32 C 970.181 438.087 969.501 437.613 968.801 436.9 C 968.094 436.18 967.571 435.407 967.231 434.58 C 969.064 434.78 970.804 434.917 972.451 434.99 C 974.098 435.057 975.654 435.09 977.121 435.09 C 980.241 435.09 982.764 434.99 984.691 434.79 C 986.611 434.59 988.128 434.49 989.241 434.49 C 989.474 434.49 989.678 434.497 989.851 434.51 C 990.018 434.523 990.174 434.547 990.321 434.58 C 990.148 434.893 989.968 435.467 989.781 436.3 C 989.594 437.127 989.414 438.037 989.241 439.03 C 989.074 440.017 988.924 440.977 988.791 441.91 C 988.664 442.843 988.571 443.537 988.511 443.99 L 988.211 444.12 C 987.211 443.547 986.488 442.903 986.041 442.19 C 985.594 441.47 985.258 440.61 985.031 439.61 C 984.631 439.297 984.128 439.097 983.521 439.01 C 982.921 438.923 982.164 438.88 981.251 438.88 C 980.504 438.88 979.788 438.893 979.101 438.92 C 978.408 438.947 977.861 438.96 977.461 438.96 C 977.234 440.08 977.064 441.443 976.951 443.05 C 976.831 444.657 976.744 446.363 976.691 448.17 C 977.091 448.223 977.498 448.257 977.911 448.27 C 978.331 448.283 978.654 448.29 978.881 448.29 C 979.481 448.29 980.074 448.057 980.661 447.59 C 981.254 447.117 981.821 446.507 982.361 445.76 C 982.508 446.1 982.651 446.493 982.791 446.94 C 982.938 447.387 983.104 447.83 983.291 448.27 C 983.478 448.717 983.684 449.14 983.911 449.54 C 984.144 449.94 984.418 450.24 984.731 450.44 C 984.471 450.7 984.221 451.03 983.981 451.43 C 983.734 451.837 983.504 452.267 983.291 452.72 C 983.078 453.18 982.878 453.64 982.691 454.1 C 982.504 454.56 982.338 454.977 982.191 455.35 C 982.018 455.03 981.818 454.683 981.591 454.31 C 981.364 453.943 981.121 453.6 980.861 453.28 C 980.601 452.967 980.321 452.703 980.021 452.49 C 979.721 452.27 979.398 452.16 979.051 452.16 C 978.798 452.16 978.424 452.177 977.931 452.21 C 977.444 452.237 977.001 452.293 976.601 452.38 L 976.601 453.15 C 976.601 454.957 976.624 456.67 976.671 458.29 C 976.711 459.91 976.788 461.323 976.901 462.53 L 984.171 463.26 C 984.571 461.48 985.281 459.903 986.301 458.53 C 987.314 457.15 988.411 455.817 989.591 454.53 L 989.851 454.62 C 989.764 455.273 989.704 455.923 989.671 456.57 C 989.644 457.217 989.631 457.84 989.631 458.44 C 989.631 459.933 989.704 461.283 989.851 462.49 C 989.991 463.69 990.161 464.59 990.361 465.19 C 989.874 465.25 989.394 465.33 988.921 465.43 C 988.448 465.53 987.938 465.693 987.391 465.92 C 986.851 466.153 986.271 466.47 985.651 466.87 C 985.038 467.27 984.358 467.787 983.611 468.42 C 981.204 467.7 978.824 467.163 976.471 466.81 C 974.124 466.45 972.004 466.27 970.111 466.27 C 969.191 466.27 968.344 466.413 967.571 466.7 Z" transform="matrix(1.0748449563980103, 0, 0, 1.0837299823760986, -58.1131591796875, -37.175350189208984)" style="fill: rgb(255, 255, 255); line-height: 5.33079px; paint-order: fill; white-space: pre; mix-blend-mode: lighten;"/>
</svg>